<mxfile host="Electron" modified="2024-03-06T05:23:38.853Z" agent="Mozilla/5.0 (Windows NT 10.0; Win64; x64) AppleWebKit/537.36 (KHTML, like Gecko) draw.io/23.1.5 Chrome/120.0.6099.109 Electron/28.1.0 Safari/537.36" etag="p5p_ccIb40LYu4DMU_Lv" version="23.1.5" type="device">
  <diagram name="Page-1" id="fs_1mpKJsf456bfiZJcm">
    <mxGraphModel dx="1276" dy="654" grid="1" gridSize="10" guides="1" tooltips="1" connect="1" arrows="1" fold="1" page="1" pageScale="1" pageWidth="850" pageHeight="1100" math="0" shadow="0">
      <root>
        <mxCell id="0" />
        <mxCell id="1" parent="0" />
        <mxCell id="Vk_Per3ITeKMcxwqGoGG-1" value="" style="edgeStyle=orthogonalEdgeStyle;rounded=0;orthogonalLoop=1;jettySize=auto;html=1;" edge="1" parent="1" target="Vk_Per3ITeKMcxwqGoGG-4">
          <mxGeometry relative="1" as="geometry">
            <mxPoint x="450" y="90" as="sourcePoint" />
          </mxGeometry>
        </mxCell>
        <mxCell id="Vk_Per3ITeKMcxwqGoGG-2" value="Verilmiş 3 ədəddən neçəsinin cut olduğunu tapan alqoritim" style="whiteSpace=wrap;html=1;aspect=fixed;" vertex="1" parent="1">
          <mxGeometry x="190" y="20" width="120" height="120" as="geometry" />
        </mxCell>
        <mxCell id="Vk_Per3ITeKMcxwqGoGG-3" value="" style="edgeStyle=orthogonalEdgeStyle;rounded=0;orthogonalLoop=1;jettySize=auto;html=1;" edge="1" parent="1" source="Vk_Per3ITeKMcxwqGoGG-4" target="Vk_Per3ITeKMcxwqGoGG-6">
          <mxGeometry relative="1" as="geometry" />
        </mxCell>
        <mxCell id="Vk_Per3ITeKMcxwqGoGG-4" value="a,b,c,&lt;div&gt;count&lt;/div&gt;" style="shape=parallelogram;perimeter=parallelogramPerimeter;whiteSpace=wrap;html=1;fixedSize=1;" vertex="1" parent="1">
          <mxGeometry x="390" y="120" width="120" height="60" as="geometry" />
        </mxCell>
        <mxCell id="Vk_Per3ITeKMcxwqGoGG-5" value="" style="edgeStyle=orthogonalEdgeStyle;rounded=0;orthogonalLoop=1;jettySize=auto;html=1;" edge="1" parent="1" source="Vk_Per3ITeKMcxwqGoGG-6" target="Vk_Per3ITeKMcxwqGoGG-11">
          <mxGeometry relative="1" as="geometry" />
        </mxCell>
        <mxCell id="Vk_Per3ITeKMcxwqGoGG-6" value="count = 0" style="rounded=0;whiteSpace=wrap;html=1;" vertex="1" parent="1">
          <mxGeometry x="390" y="220" width="120" height="60" as="geometry" />
        </mxCell>
        <mxCell id="Vk_Per3ITeKMcxwqGoGG-7" value="" style="edgeStyle=orthogonalEdgeStyle;rounded=0;orthogonalLoop=1;jettySize=auto;html=1;" edge="1" parent="1" source="Vk_Per3ITeKMcxwqGoGG-11" target="Vk_Per3ITeKMcxwqGoGG-13">
          <mxGeometry relative="1" as="geometry" />
        </mxCell>
        <mxCell id="Vk_Per3ITeKMcxwqGoGG-8" value="true" style="edgeLabel;html=1;align=center;verticalAlign=middle;resizable=0;points=[];" vertex="1" connectable="0" parent="Vk_Per3ITeKMcxwqGoGG-7">
          <mxGeometry x="0.0267" y="-2" relative="1" as="geometry">
            <mxPoint as="offset" />
          </mxGeometry>
        </mxCell>
        <mxCell id="Vk_Per3ITeKMcxwqGoGG-9" value="" style="edgeStyle=orthogonalEdgeStyle;rounded=0;orthogonalLoop=1;jettySize=auto;html=1;" edge="1" parent="1" source="Vk_Per3ITeKMcxwqGoGG-11" target="Vk_Per3ITeKMcxwqGoGG-18">
          <mxGeometry relative="1" as="geometry" />
        </mxCell>
        <mxCell id="Vk_Per3ITeKMcxwqGoGG-10" value="false" style="edgeLabel;html=1;align=center;verticalAlign=middle;resizable=0;points=[];" vertex="1" connectable="0" parent="Vk_Per3ITeKMcxwqGoGG-9">
          <mxGeometry x="-0.4429" y="2" relative="1" as="geometry">
            <mxPoint as="offset" />
          </mxGeometry>
        </mxCell>
        <mxCell id="Vk_Per3ITeKMcxwqGoGG-11" value="a/2" style="rhombus;whiteSpace=wrap;html=1;" vertex="1" parent="1">
          <mxGeometry x="385" y="310" width="130" height="100" as="geometry" />
        </mxCell>
        <mxCell id="Vk_Per3ITeKMcxwqGoGG-12" style="edgeStyle=orthogonalEdgeStyle;rounded=0;orthogonalLoop=1;jettySize=auto;html=1;" edge="1" parent="1" source="Vk_Per3ITeKMcxwqGoGG-13" target="Vk_Per3ITeKMcxwqGoGG-18">
          <mxGeometry relative="1" as="geometry">
            <Array as="points">
              <mxPoint x="240" y="440" />
              <mxPoint x="450" y="440" />
            </Array>
          </mxGeometry>
        </mxCell>
        <mxCell id="Vk_Per3ITeKMcxwqGoGG-13" value="count++" style="whiteSpace=wrap;html=1;" vertex="1" parent="1">
          <mxGeometry x="180" y="340" width="120" height="60" as="geometry" />
        </mxCell>
        <mxCell id="Vk_Per3ITeKMcxwqGoGG-14" value="" style="edgeStyle=orthogonalEdgeStyle;rounded=0;orthogonalLoop=1;jettySize=auto;html=1;" edge="1" parent="1" source="Vk_Per3ITeKMcxwqGoGG-18">
          <mxGeometry relative="1" as="geometry">
            <mxPoint x="590" y="535" as="targetPoint" />
          </mxGeometry>
        </mxCell>
        <mxCell id="Vk_Per3ITeKMcxwqGoGG-15" value="true" style="edgeLabel;html=1;align=center;verticalAlign=middle;resizable=0;points=[];" vertex="1" connectable="0" parent="Vk_Per3ITeKMcxwqGoGG-14">
          <mxGeometry x="0.006" relative="1" as="geometry">
            <mxPoint as="offset" />
          </mxGeometry>
        </mxCell>
        <mxCell id="Vk_Per3ITeKMcxwqGoGG-16" value="" style="edgeStyle=orthogonalEdgeStyle;rounded=0;orthogonalLoop=1;jettySize=auto;html=1;" edge="1" parent="1" source="Vk_Per3ITeKMcxwqGoGG-18">
          <mxGeometry relative="1" as="geometry">
            <mxPoint x="450" y="650" as="targetPoint" />
          </mxGeometry>
        </mxCell>
        <mxCell id="Vk_Per3ITeKMcxwqGoGG-17" value="false" style="edgeLabel;html=1;align=center;verticalAlign=middle;resizable=0;points=[];" vertex="1" connectable="0" parent="Vk_Per3ITeKMcxwqGoGG-16">
          <mxGeometry x="-0.4319" relative="1" as="geometry">
            <mxPoint as="offset" />
          </mxGeometry>
        </mxCell>
        <mxCell id="Vk_Per3ITeKMcxwqGoGG-18" value="b/2" style="rhombus;whiteSpace=wrap;html=1;" vertex="1" parent="1">
          <mxGeometry x="390" y="480" width="120" height="110" as="geometry" />
        </mxCell>
        <mxCell id="Vk_Per3ITeKMcxwqGoGG-29" value="end" style="ellipse;whiteSpace=wrap;html=1;" vertex="1" parent="1">
          <mxGeometry x="390" y="770" width="120" height="80" as="geometry" />
        </mxCell>
        <mxCell id="Vk_Per3ITeKMcxwqGoGG-31" style="edgeStyle=orthogonalEdgeStyle;rounded=0;orthogonalLoop=1;jettySize=auto;html=1;entryX=0.5;entryY=0;entryDx=0;entryDy=0;" edge="1" parent="1" source="Vk_Per3ITeKMcxwqGoGG-30" target="Vk_Per3ITeKMcxwqGoGG-29">
          <mxGeometry relative="1" as="geometry" />
        </mxCell>
        <mxCell id="Vk_Per3ITeKMcxwqGoGG-30" value="count" style="shape=document;whiteSpace=wrap;html=1;boundedLbl=1;" vertex="1" parent="1">
          <mxGeometry x="390" y="650" width="120" height="60" as="geometry" />
        </mxCell>
        <mxCell id="Vk_Per3ITeKMcxwqGoGG-36" style="edgeStyle=orthogonalEdgeStyle;rounded=0;orthogonalLoop=1;jettySize=auto;html=1;entryX=1;entryY=0.5;entryDx=0;entryDy=0;" edge="1" parent="1" source="Vk_Per3ITeKMcxwqGoGG-32" target="Vk_Per3ITeKMcxwqGoGG-30">
          <mxGeometry relative="1" as="geometry">
            <mxPoint x="650" y="680" as="targetPoint" />
            <Array as="points">
              <mxPoint x="660" y="680" />
            </Array>
          </mxGeometry>
        </mxCell>
        <mxCell id="Vk_Per3ITeKMcxwqGoGG-32" value="count ++" style="rounded=0;whiteSpace=wrap;html=1;" vertex="1" parent="1">
          <mxGeometry x="590" y="505" width="120" height="60" as="geometry" />
        </mxCell>
      </root>
    </mxGraphModel>
  </diagram>
</mxfile>
